<?xml version="1.0" standalone="no"?><!-- Generator: Adobe Fireworks CS6, Export SVG Extension by Aaron Beall (http://fireworks.abeall.com) . Version: 0.6.1  --><!DOCTYPE svg PUBLIC "-//W3C//DTD SVG 1.1//EN" "http://www.w3.org/Graphics/SVG/1.1/DTD/svg11.dtd"><svg viewBox="0 0 100 100" style="background-color:#ffffff00" version="1.1" xmlns="http://www.w3.org/2000/svg" xmlns:xlink="http://www.w3.org/1999/xlink" xml:space="preserve" x="0px" y="0px" width="100px" height="100px">	<g>		<path opacity="0.8" d="M 0 22 L 0 95 C 0 97.7615 2.2385 100 5 100 L 95 100 C 97.7615 100 100 97.7615 100 95 L 100 22 L 0 22 Z" fill="#000000"/>		<path d="M 5 0 C 2.2385 0 0 2.2385 0 5 L 0 22 L 100 22 L 100 5 C 100 2.2385 97.7615 0 95 0 L 5 0 Z" fill="#dddddd"/>		<path d="M 8.5 11 C 8.5 7.9624 11.0313 5.5 14.1538 5.5 C 17.2764 5.5 19.8077 7.9624 19.8077 11 C 19.8077 14.0376 17.2764 16.5 14.1538 16.5 C 11.0313 16.5 8.5 14.0376 8.5 11 Z" fill="#ff9999"/>		<path d="M 27.3462 11 C 27.3462 7.9624 29.8774 5.5 33 5.5 C 36.1226 5.5 38.6538 7.9624 38.6538 11 C 38.6538 14.0376 36.1226 16.5 33 16.5 C 29.8774 16.5 27.3462 14.0376 27.3462 11 Z" fill="#ffe599"/>		<path d="M 46.1923 11 C 46.1923 7.9624 48.7236 5.5 51.8462 5.5 C 54.9687 5.5 57.5 7.9624 57.5 11 C 57.5 14.0376 54.9687 16.5 51.8462 16.5 C 48.7236 16.5 46.1923 14.0376 46.1923 11 Z" fill="#b3ff99"/>	</g></svg>