<?xml version="1.0" encoding="UTF-8"?>
<svg width="1024px" height="1024px" viewBox="0 0 1024 1024" version="1.1" xmlns="http://www.w3.org/2000/svg" xmlns:xlink="http://www.w3.org/1999/xlink">
    <!-- Generator: Sketch 42 (36781) - http://www.bohemiancoding.com/sketch -->
    <title>icon</title>
    <desc>Created with Sketch.</desc>
    <defs></defs>
    <g id="Page-1" stroke="none" stroke-width="1" fill="none" fill-rule="evenodd">
        <g id="icon" fill="#281A78">
            <path d="M0.112374967,468.785156 C22.0541855,206.239565 242.099365,0 510.314375,0 C793.084167,0 1022.31438,229.230208 1022.31438,512 C1022.31438,544.923117 1019.2069,577.120444 1013.26925,608.31468 C1005.84727,589.271686 993.29923,574.109598 975.624922,562.828125 C952.675589,548.179614 922.353626,540.855469 884.658125,540.855469 C841.884474,540.855469 808.828164,549.30265 785.488204,566.197266 C762.148243,583.091881 750.478438,606.67563 750.478438,636.949219 C750.478438,655.308686 754.726442,670.787046 763.222579,683.384766 C771.718715,695.982485 784.072107,706.236289 800.283125,714.146484 C816.494144,722.05668 847.841487,730.601517 894.326094,739.78125 C914.638696,743.882833 929.042849,748.91208 937.538985,754.869141 C944.732782,759.913068 948.88099,766.462177 949.983684,774.516616 C942.710095,786.672419 934.946688,798.501419 926.720729,809.976348 C916.338055,813.570255 902.121956,815.367188 884.072188,815.367188 C859.072063,815.367188 841.542941,812.242219 831.484297,805.992188 C821.425653,799.742156 814.345646,789.097731 810.244063,774.058594 L737.880782,784.898438 C745.498007,814.000146 760.878713,835.435478 784.02336,849.205078 C805.817788,862.171384 836.660935,869.032661 876.553636,869.789082 C783.587521,964.936994 653.8484,1024 510.314375,1024 C354.758534,1024 215.405177,954.628917 121.503136,845.135583 L139.638594,772.59375 L152.529219,720.738281 L162.783125,677.671875 C170.595665,712.828301 179.384639,748.863097 189.150313,785.777344 L207.900313,864 L280.556563,864 L342.08,468.785156 L266.201094,468.785156 L241.591719,672.398438 C239.638584,687.632889 238.0761,710.972499 236.904219,742.417969 L236.318282,750.328125 C231.826072,728.453016 228.652275,713.267621 226.796797,704.771484 C224.941319,696.275348 222.744076,687.632856 220.205,678.84375 L191.201094,579.527344 L134.072188,579.527344 L105.068282,678.84375 L93.3495317,728.0625 L88.9550005,750.328125 C88.1737466,717.124834 86.6112622,691.148531 84.2675005,672.398438 L58.1932817,468.785156 L0.112374967,468.785156 Z M1009.26288,627.371545 C1003.67385,651.64067 996.359699,675.250471 987.456482,698.064904 C975.856191,690.691807 960.486709,684.333646 941.347579,678.990234 C922.109201,673.619114 900.087937,668.394557 875.283125,663.316406 C857.509599,659.800764 844.863241,655.357449 837.343672,649.986328 C829.824104,644.615208 826.064375,637.33989 826.064375,628.160156 C826.064375,616.441348 830.947139,608.091822 840.712813,603.111328 C850.478487,598.130834 865.126778,595.640625 884.658125,595.640625 C904.5801,595.640625 919.130736,598.814421 928.310469,605.162109 C937.490203,611.509797 943.251864,621.128842 945.595625,634.019531 L1009.26289,627.371544 Z M525.771407,869.859375 C560.146579,869.859375 589.833782,862.388747 614.833907,847.447266 C639.834032,832.505785 657.704947,811.265763 668.447188,783.726562 L590.810469,776.988281 C586.9042,789.878971 579.384744,799.40036 568.251875,805.552734 C557.119007,811.705109 544.326167,814.78125 529.872969,814.78125 C507.607233,814.78125 490.078111,806.382896 477.285079,789.585938 C464.492046,772.788979 458.095625,750.0353 458.095625,721.324219 L673.134688,721.324219 L673.134688,718.980469 C673.134688,662.144247 660.341847,618.297029 634.755782,587.4375 C609.169716,556.577971 573.232576,541.148438 526.943282,541.148438 C495.107185,541.148438 467.568398,547.398375 444.326094,559.898438 C421.083791,572.3985 403.164048,590.757691 390.566329,614.976562 C377.968609,639.195434 371.669844,668.882637 371.669844,704.039062 C371.669844,756.578388 385.048617,797.349464 411.806563,826.353516 C438.564509,855.357567 476.552411,869.859375 525.771407,869.859375 Z M525.771407,593.003906 C545.498068,593.003906 561.36705,599.937431 573.378829,613.804688 C585.390607,627.671944 592.079994,646.324102 593.447188,669.761719 L458.681563,669.761719 C459.462817,645.738161 465.81041,626.939521 477.724532,613.365234 C489.638654,599.790948 505.654119,593.003906 525.771407,593.003906 Z" id="Wes-Path"></path>
        </g>
    </g>
</svg>